<?xml version="1.0" encoding="UTF-8"?>
<svg id="Calque_4_-_copie" data-name="Calque 4 - copie" xmlns="http://www.w3.org/2000/svg" viewBox="0 0 48.14 48.14">
  <defs>
    <style>
      .cls-1 {
        fill: #363537;
      }

      .cls-1, .cls-2 {
        stroke-width: 0px;
      }

      .cls-2 {
        fill: #fff;
      }

      .cls-3 {
        fill: none;
        stroke: #363537;
        stroke-miterlimit: 10;
        stroke-width: 2px;
      }
    </style>
  </defs>
  <path class="cls-1" d="M24.07.72C11.17.72.72,11.17.72,24.07s10.45,23.35,23.35,23.35,23.35-10.45,23.35-23.35S36.97.72,24.07.72Z"/>
  <path class="cls-2" d="M24.07.72C11.17.72.72,11.17.72,24.07s10.45,23.35,23.35,23.35,23.35-10.45,23.35-23.35S36.97.72,24.07.72ZM40.18,32.5c-2.54,1.99-5.01-.34-5.01-.34,0,0-8.71-8.37-9.94-9.94-1.23-1.58-2.33-.07-2.33-.07l-10.19,10.26c-.07.07-.15.13-.24.19-.62.39-3.19,1.78-4.86-.44-1.72-2.28-.36-4.28-.05-4.66.03-.05.07-.08.11-.12l11.34-11.13s.09-.08.13-.11c1.9-1.46,2.77-1.53,4.59-1.73,3.54-.38,5.37,1.67,6.81,3.1l9.9,9.9c.07.07.13.14.18.22.39.61,1.79,3.13-.43,4.87Z"/>
  <path class="cls-3" d="M24.07,1.56C11.64,1.56,1.56,11.64,1.56,24.07s10.08,22.51,22.51,22.51,22.51-10.08,22.51-22.51S36.5,1.56,24.07,1.56Z"/>
</svg>